<svg width="16" height="16" viewBox="0 0 16 16" fill="none" xmlns="http://www.w3.org/2000/svg">
<g clip-path="url(#clip0_268_1166)">
<path d="M14.6667 0H1.33333C0.596954 0 0 0.596954 0 1.33333V14.6667C0 15.403 0.596954 16 1.33333 16H14.6667C15.403 16 16 15.403 16 14.6667V1.33333C16 0.596954 15.403 0 14.6667 0Z" fill="url(#paint0_linear_268_1166)"/>
<path d="M4.66016 10.1014H6.29428C6.3138 10.8762 6.84767 11.397 7.62894 11.397C8.52734 11.397 9.0156 10.8501 9.0156 9.83451V3.27197H10.6888V9.84751C10.6888 11.7616 9.556 12.8683 7.64847 12.8683C5.85808 12.8683 4.66016 11.768 4.66016 10.1014Z" fill="white"/>
</g>
<defs>
<linearGradient id="paint0_linear_268_1166" x1="8.03987" y1="16" x2="7.8158" y2="0.00202091" gradientUnits="userSpaceOnUse">
<stop stop-color="#0B0B0B"/>
<stop offset="0.55" stop-color="#121212"/>
<stop offset="1" stop-color="#161616"/>
</linearGradient>
<clipPath id="clip0_268_1166">
<rect width="16" height="16" fill="white"/>
</clipPath>
</defs>
</svg>
