<?xml version="1.0" encoding="UTF-8" standalone="no"?>
<!-- Created with Inkscape (http://www.inkscape.org/) -->

<svg
   width="79.511093mm"
   height="72.22657mm"
   viewBox="0 0 79.511093 72.22657"
   version="1.1"
   id="svg5"
   xml:space="preserve"
   inkscape:version="1.2.2 (b0a8486541, 2022-12-01)"
   sodipodi:docname="x-logo.svg"
   xmlns:inkscape="http://www.inkscape.org/namespaces/inkscape"
   xmlns:sodipodi="http://sodipodi.sourceforge.net/DTD/sodipodi-0.dtd"
   xmlns="http://www.w3.org/2000/svg"
   xmlns:svg="http://www.w3.org/2000/svg"><sodipodi:namedview
     id="namedview7"
     pagecolor="#ffffff"
     bordercolor="#000000"
     borderopacity="0.25"
     inkscape:showpageshadow="2"
     inkscape:pageopacity="0.0"
     inkscape:pagecheckerboard="0"
     inkscape:deskcolor="#d1d1d1"
     inkscape:document-units="mm"
     showgrid="false"
     inkscape:zoom="0.57848045"
     inkscape:cx="114.09201"
     inkscape:cy="160.76602"
     inkscape:window-width="912"
     inkscape:window-height="553"
     inkscape:window-x="-4"
     inkscape:window-y="132"
     inkscape:window-maximized="0"
     inkscape:current-layer="layer1" /><defs
     id="defs2" /><g
     inkscape:label="Capa 1"
     inkscape:groupmode="layer"
     id="layer1"
     transform="translate(-124.28339,-68.089748)"><path
       style="fill:#505050;fill-opacity:1;stroke:none;stroke-width:0.264583"
       d="m 126.21379,139.85346 c 0.21846,-0.25466 6.65359,-7.61998 14.3003,-16.36738 l 13.90311,-15.90437 -15.06691,-19.68209 -15.0669,-19.6821 12.48517,-0.0687 c 7.7028,-0.0424 12.59811,0.0286 12.78001,0.18531 0.16216,0.13973 4.10484,5.31319 8.76151,11.49656 4.65666,6.18338 8.52619,11.24658 8.59895,11.25155 0.0728,0.005 4.65667,-5.16515 10.18646,-11.48916 l 10.05417,-11.49821 6.01927,-0.005 c 3.3106,-0.003 6.01927,0.0497 6.01927,0.11625 0,0.0666 -5.9693,6.93263 -13.26511,15.2579 -11.66452,13.31042 -13.22827,15.19584 -12.9598,15.62572 0.16791,0.26888 7.12846,9.50603 15.46788,20.527 8.33942,11.02097 15.24992,20.18695 15.35667,20.36885 0.15412,0.26262 -2.32915,0.33059 -12.0585,0.33005 l -12.2526,-6.8e-4 -9.61752,-12.56703 c -5.28963,-6.91186 -9.69494,-12.5589 -9.78958,-12.54898 -0.0946,0.01 -5.10027,5.66539 -11.12363,12.56771 l -10.95157,12.54966 h -6.08892 c -5.77389,0 -6.06836,-0.0239 -5.69173,-0.46302 z m 63.16759,-7.14375 c -0.009,-0.10914 -9.81085,-13.11672 -21.78082,-28.90573 L 145.83699,75.09669 142.2178,75.02308 c -1.99055,-0.0405 -3.61918,-0.0123 -3.61918,0.0627 0,0.12742 41.34526,54.24432 43.31713,56.69789 l 0.90371,1.12448 h 3.28958 c 1.80927,0 3.28182,-0.0893 3.27234,-0.19844 z"
       id="path2024" /></g></svg>
